<?xml version="1.0" encoding="utf-8"?>
<!-- Uploaded to: SVG Repo, www.svgrepo.com, Generator: SVG Repo Mixer Tools -->
<svg width="800px" height="800px" viewBox="0 0 1024 1024" class="icon"  version="1.1" xmlns="http://www.w3.org/2000/svg"><path d="M488.938667 242.368S135.445333 171.114667 90.389333 461.994667C45.418667 752.917333 312.576 843.968 389.76 861.397333c77.141333 17.408 423.808 65.322667 496.533333-249.898666 60.288-261.205333-172.309333-418.581333-371.605333-363.285334l-25.749333-5.845333z" fill="#FF3D00" /><path d="M514.688 248.213333l-25.749333-5.824S231.168 190.592 127.872 356.693333c34.048 20.778667 89.877333 45.162667 89.877333 45.162667 38.485333 16.597333 75.477333 25.045333 109.952 25.045333 34.048 0 65.237333-8.085333 92.373334-23.424 8.938667 43.157333 33.6 88.554667 91.008 123.626667l41.706666 25.472 19.626667-44.778667c16.448-37.546667 24.64-68.842667 26.645333-97.002666 22.08 11.114667 46.656 18.218667 73.493334 18.218666 32.192 0 64.746667-10.176 96.746666-30.186666 0 0 42.005333-24.256 68.928-44.757334-73.194667-95.850667-204.288-138.944-323.541333-105.856z" fill="#DD2C00" /><path d="M533.333333 490.688c40.896-93.333333 23.658667-135.701333-16.192-213.354667 54.528 71.04 127.296 149.354667 229.525334 85.354667-77.781333-20.672-63.701333-80.469333-160.298667-97.429333 72.448 3.029333 110.762667 25.685333 160.298667-73.237334-77.994667 41.045333-123.562667-48.896-224.917334 43.776-17.109333 10.624-35.072-16.341333-48.789333-1.728-73.173333-121.621333-160.128-12.928-195.626667-106.048 0 143.189333 137.429333 104.234667 170.666667 128-129.365333-10.901333-119.402667 87.552-213.333333 106.666667 123.562667 53.333333 203.754667 1.344 236.202666-87.274667-5.077333 34.624-48.768 147.328 62.464 215.274667z" fill="#4CAF50" /><path d="M469.354667 257.28c-0.554667 4.202667 8.362667 20.053333 37.290666 20.053333 34.624 0 21.354667-17.258667 21.354667-17.258666s-3.178667-99.626667 69.333333-165.461334c-18.410667-15.253333-37.781333-7.082667-37.781333-7.082666S482.133333 167.466667 469.354667 257.28z" fill="#4CAF50" /></svg>